<svg xmlns="http://www.w3.org/2000/svg" viewBox="0 0 760 132" width="760" height="132" role="img" aria-label="Transmit a signal"><title>Transmit a signal</title><style>.bsw{animation:bsw 3.6s ease-in-out infinite}
@keyframes bsw{0%{transform:skewX(-20deg) translateX(0)}55%{transform:skewX(-20deg) translateX(1160px)}100%{transform:skewX(-20deg) translateX(1160px)}}
.bw{animation:bw 1.5s ease-in-out infinite}
@keyframes bw{0%{opacity:.15}50%{opacity:1}100%{opacity:.15}}
.arr{animation:arr 1.2s ease-in-out infinite}
@keyframes arr{0%{transform:translateX(0)}50%{transform:translateX(8px)}100%{transform:translateX(0)}}
@media (prefers-reduced-motion: reduce){*{animation:none!important}}</style><defs><linearGradient id="gBtn" x1="0" x2="1"><stop offset="0" stop-color="#50BEFF" stop-opacity=".22"/><stop offset="1" stop-color="#8F7BFF" stop-opacity=".22"/></linearGradient><linearGradient id="gBtnLine" x1="0" x2="1"><stop offset="0" stop-color="#50BEFF"/><stop offset="1" stop-color="#8F7BFF"/></linearGradient><linearGradient id="gBtnSweep" x1="0" x2="1"><stop offset="0" stop-color="#fff" stop-opacity="0"/><stop offset=".5" stop-color="#fff" stop-opacity=".22"/><stop offset="1" stop-color="#fff" stop-opacity="0"/></linearGradient><clipPath id="cBtn"><rect x="8" y="8" width="744" height="116" rx="58"/></clipPath><path id="b2c" d="M302 0V564H20V720H740V564H458V0Z"/><path id="b2a" d="M615 0 406 249H609L775 53V0ZM56 0V719H627Q668 719 701 699Q735 679 756 645Q776 611 776 571V385Q776 345 756 311Q735 277 701 257Q668 237 627 237L211 236V0ZM211 393H619Q619 393 619 393Q619 393 619 393V564Q619 564 619 564Q619 564 619 564H211Q211 564 211 564Q211 564 211 564V393Q211 393 211 393Q211 393 211 393Z"/><path id="b1t" d="M58 0V572Q58 612 78 646Q98 680 132 700Q166 720 206 720H629Q670 720 703 700Q737 680 758 646Q778 612 778 572V0H621V232H213V0H58ZM213 388H621V564Q621 564 621 564Q621 564 621 564H213Q213 564 213 564Q213 564 213 564V388Z"/><path id="b26" d="M56 0V720H216L619 240V720H776V0H616L211 482V0Z"/><path id="b2b" d="M202 0Q162 0 128 20Q94 40 74 74Q54 108 54 148V215H209V156Q209 156 209 156Q209 156 209 156H617Q617 156 617 156Q617 156 617 156V282Q617 282 617 282Q617 282 617 282H202Q162 282 128 302Q94 322 74 356Q54 389 54 430V572Q54 612 74 646Q94 680 128 700Q162 720 202 720H626Q666 720 700 700Q733 680 754 646Q774 612 774 572V505H617V564Q617 564 617 564Q617 564 617 564H209Q209 564 209 564Q209 564 209 564V438Q209 438 209 438Q209 438 209 438H626Q666 438 700 418Q733 398 754 364Q774 331 774 290V148Q774 108 754 74Q733 40 700 20Q666 0 626 0Z"/><path id="b25" d="M56 0V720H216L460 429L703 720H864V0H708V483L460 187L211 482V0Z"/><path id="b21" d="M31 0V720H184V0Z"/><path id="b1z" d="M204 0Q164 0 130 20Q96 40 76 74Q56 108 56 148V572Q56 612 76 646Q96 680 130 700Q164 720 204 720H627Q668 720 701 700Q735 680 756 646Q776 612 776 572V504H619V564Q619 564 619 564Q619 564 619 564H211Q211 564 211 564Q211 564 211 564V156Q211 156 211 156Q211 156 211 156H619Q619 156 619 156Q619 156 619 156V264H463V420H776V148Q776 108 756 74Q735 40 701 20Q668 0 627 0Z"/><path id="b24" d="M57 0V721H212V156H777V0Z"/><path id="d2r" d="M304 -10Q238 -10 188 15Q139 40 112 88Q85 135 85 200V350Q85 416 112 463Q139 510 188 535Q238 560 304 560Q399 560 457 509Q515 458 518 370H428Q425 423 392 452Q360 480 304 480Q245 480 210 446Q175 413 175 351V200Q175 138 210 104Q245 70 304 70Q360 70 392 99Q425 128 428 180H518Q515 92 457 41Q399 -10 304 -10Z"/><path id="d30" d="M375 0Q327 0 291 19Q255 38 235 73Q215 108 215 155V648H30V730H305V155Q305 121 324 102Q343 82 375 82H550V0Z"/><path id="d2x" d="M85 0V82H280V468H110V550H370V82H555V0ZM315 649Q282 649 263 666Q244 683 244 712Q244 742 263 760Q282 777 315 777Q348 777 367 760Q386 742 386 712Q386 683 367 666Q348 649 315 649Z"/><path id="d2z" d="M95 0V730H185V323H291L451 550H554L369 288L557 0H452L292 245H185V0Z"/><path id="d53" d="M300 260Q262 260 240 282Q217 304 217 341Q217 380 240 403Q262 426 300 426Q338 426 360 403Q383 380 383 341Q383 304 360 282Q338 260 300 260Z"/><path id="d2w" d="M92 0V730H182V550V445H201L182 424Q182 489 221 524Q260 560 329 560Q412 560 461 509Q510 458 510 370V0H420V360Q420 419 388 452Q357 484 303 484Q247 484 214 449Q182 414 182 350V0Z"/><path id="d38" d="M360 0Q289 0 250 38Q210 76 210 145V468H55V550H210V705H300V550H520V468H300V145Q300 82 360 82H510V0Z"/><path id="d37" d="M283 -8Q227 -8 186 10Q144 27 120 59Q95 91 90 135H180Q186 106 212 89Q239 72 283 72H325Q378 72 404 94Q430 115 430 151Q430 186 406 206Q383 227 337 234L263 246Q182 260 142 296Q103 333 103 403Q103 477 150 518Q197 558 291 558H329Q408 558 456 521Q504 484 514 421H424Q418 447 394 462Q370 478 329 478H291Q240 478 216 459Q193 440 193 402Q193 368 213 352Q233 336 276 329L350 317Q439 303 480 265Q520 227 520 155Q520 79 472 36Q423 -8 325 -8Z"/><path id="d39" d="M299 -10Q204 -10 147 46Q90 103 90 200V550H180V200Q180 138 212 104Q244 69 299 69Q355 69 388 104Q420 138 420 200V550H510V200Q510 103 452 46Q394 -10 299 -10Z"/><path id="d2q" d="M332 -10Q264 -10 223 26Q182 63 182 126L200 105H182V0H92V730H182V570L180 445H200L182 424Q182 486 224 523Q265 560 332 560Q415 560 465 505Q515 450 515 355V194Q515 100 465 45Q415 -10 332 -10ZM302 68Q359 68 392 102Q425 136 425 200V350Q425 414 392 448Q359 482 302 482Q247 482 214 447Q182 412 182 350V200Q182 138 214 103Q247 68 302 68Z"/><path id="d31" d="M66 0V550H145V484H163L149 460Q149 506 174 533Q198 560 240 560Q286 560 311 526Q336 492 336 430L309 484H351L332 460Q332 506 358 533Q383 560 425 560Q477 560 506 521Q534 482 534 418V0H451V419Q451 453 436 472Q422 491 394 491Q367 491 352 472Q336 454 336 420V0H264V419Q264 454 248 472Q233 491 205 491Q177 491 163 472Q149 454 149 420V0Z"/><path id="d2t" d="M300 -10Q235 -10 186 16Q138 42 112 90Q85 137 85 200V350Q85 414 112 461Q138 508 186 534Q235 560 300 560Q365 560 414 534Q462 508 488 461Q515 414 515 350V253H173V200Q173 135 206 100Q239 66 300 66Q352 66 384 84Q416 103 423 140H513Q504 71 446 30Q387 -10 300 -10ZM427 313V350Q427 415 394 450Q362 485 300 485Q239 485 206 450Q173 415 173 350V321H434Z"/><path id="d33" d="M300 -8Q234 -8 186 17Q138 42 112 90Q85 137 85 202V348Q85 414 112 461Q138 508 186 533Q234 558 300 558Q366 558 414 533Q462 508 488 461Q515 414 515 349V202Q515 137 488 90Q462 42 414 17Q366 -8 300 -8ZM300 72Q359 72 392 105Q425 138 425 202V348Q425 412 392 445Q359 478 300 478Q242 478 208 445Q175 412 175 348V202Q175 138 208 105Q242 72 300 72Z"/><path id="d2p" d="M252 -10Q165 -10 115 34Q65 79 65 155Q65 232 115 276Q165 320 250 320H420V375Q420 426 390 454Q359 481 303 481Q254 481 221 460Q188 440 183 405H93Q102 476 160 518Q218 560 305 560Q400 560 455 511Q510 462 510 378V0H422V105H407L422 120Q422 60 376 25Q329 -10 252 -10ZM274 61Q338 61 379 93Q420 125 420 175V253H252Q207 253 181 228Q155 203 155 160Q155 114 186 88Q218 61 274 61Z"/><path id="d36" d="M111 0V550H199V445H220L191 380Q191 469 230 514Q268 560 344 560Q431 560 482 506Q534 451 534 358V325H444V350Q444 415 412 450Q381 484 323 484Q266 484 234 449Q201 414 201 350V0Z"/><path id="d32" d="M92 0V550H182V445H201L182 424Q182 489 221 524Q260 560 329 560Q412 560 461 509Q510 458 510 370V0H420V360Q420 419 388 450Q357 482 303 482Q247 482 214 448Q182 414 182 350V0Z"/><path id="d3d" d="M178 -180 259 34 55 550H155L283 210Q290 193 296 170Q302 146 306 130Q310 146 316 170Q322 193 328 210L448 550H545L274 -180Z"/><path id="e6mq" d="M233 35 395 240Q405 253 418 266Q431 278 440 285V294Q427 293 407 292Q387 290 370 290H40V370H370Q387 370 407 368Q427 367 440 365V374Q433 380 420 393Q408 406 395 421L233 625H338L570 330L339 35Z"/></defs><rect x="8" y="8" width="744" height="116" rx="58" fill="#070618"/><rect x="8" y="8" width="744" height="116" rx="58" fill="url(#gBtn)"/><g clip-path="url(#cBtn)"><rect class="bsw" x="-200" y="0" width="160" height="132" fill="url(#gBtnSweep)" transform="skewX(-20)"/></g><rect x="8" y="8" width="744" height="116" rx="58" fill="none" stroke="url(#gBtnLine)" stroke-width="2.5"/><g transform="translate(84 78)" fill="none" stroke="#50BEFF" stroke-width="3" stroke-linecap="round"><path d="M-18 -4A26 26 0 0 0 12 -34Z" fill="#50BEFF" fill-opacity=".2"/><path d="M-3 -19L8 -30"/><path d="M-6 6L-12 22M-6 6L2 22M-14 22H6"/></g><path d="M98 38A16 16 0 0 1 114 58" fill="none" stroke="#50BEFF" stroke-width="2.6" stroke-linecap="round" class="bw" style="animation-delay:0s"/><path d="M107 36A26 26 0 0 1 126 54" fill="none" stroke="#50BEFF" stroke-width="2.6" stroke-linecap="round" class="bw" style="animation-delay:0.25s"/><path d="M116 34A36 36 0 0 1 138 50" fill="none" stroke="#50BEFF" stroke-width="2.6" stroke-linecap="round" class="bw" style="animation-delay:0.5s"/><g transform="translate(150 70) scale(0.03 -0.03)" fill="#eaf6ff"><use href="#b2c" x="0"/><use href="#b2a" x="839"/><use href="#b1t" x="1744"/><use href="#b26" x="2660"/><use href="#b2b" x="3572"/><use href="#b25" x="4480"/><use href="#b21" x="5488"/><use href="#b2c" x="5802"/><use href="#b1t" x="7043"/><use href="#b2b" x="8361"/><use href="#b21" x="9269"/><use href="#b1z" x="9563"/><use href="#b26" x="10473"/><use href="#b1t" x="11385"/><use href="#b24" x="12301"/></g><g transform="translate(152 96) scale(0.014 -0.014)" fill="#50BEFF"><use href="#d2r" x="0"/><use href="#d30" x="600"/><use href="#d2x" x="1200"/><use href="#d2r" x="1800"/><use href="#d2z" x="2400"/><use href="#d53" x="3600"/><use href="#d2w" x="4800"/><use href="#d2x" x="5400"/><use href="#d38" x="6000"/><use href="#d37" x="7200"/><use href="#d39" x="7800"/><use href="#d2q" x="8400"/><use href="#d31" x="9000"/><use href="#d2x" x="9600"/><use href="#d38" x="10200"/><use href="#d53" x="11400"/><use href="#d2q" x="12600"/><use href="#d2t" x="13200"/><use href="#d2r" x="13800"/><use href="#d33" x="14400"/><use href="#d31" x="15000"/><use href="#d2t" x="15600"/><use href="#d2p" x="16800"/><use href="#d37" x="18000"/><use href="#d38" x="18600"/><use href="#d2p" x="19200"/><use href="#d36" x="19800"/><use href="#d2x" x="21000"/><use href="#d32" x="21600"/><use href="#d38" x="22800"/><use href="#d2w" x="23400"/><use href="#d2x" x="24000"/><use href="#d37" x="24600"/><use href="#d37" x="25800"/><use href="#d2z" x="26400"/><use href="#d3d" x="27000"/></g><g class="arr"><g transform="translate(679.6 78) scale(0.034 -0.034)" fill="#50BEFF"><use href="#e6mq" x="0"/></g></g></svg>